# xmcd CD database file
#
# Track frame offsets:
#	150
#	13674
#	27347
#	40410
#	54261
#	68079
#	83228
#	97981
#	111282
#	123426
#	136544
#	150380
#	166181
#	179312
#	192690
#	206829
#	221196
#	235081
#	248196
#	259302
#	272166
#
# Disc length: 3814 seconds
#
# Revision: 0
# Processed by: cddbd v1.5.1PL0 Copyright (c) Steve Scherf et al.
# Submitted via: CDex 1.51
#
DISCID=290ee415
DTITLE=Billie Holiday - The Essential Billie Holiday
DYEAR=2005
DGENRE=Jazz
TTITLE0=What a Little Moonlight Can Do
TTITLE1=Miss Brown to Yoy
TTITLE2=A Sunbonnet Blue
TTITLE3=I Wished on the Moon
TTITLE4=Twenty Four Hours a Day
TTITLE5=These Foolish Things
TTITLE6=I Cried for You
TTITLE7=Summertime
TTITLE8=Billie's Blues
TTITLE9=A Fine Romance
TTITLE10=The Way You Look Tonight
TTITLE11=I Can't Give You Anything But Love
TTITLE12=Why Was I Born
TTITLE13=I Must Have That Man
TTITLE14=Moanin' Low
TTITLE15=Mean To Me
TTITLE16=My Man
TTITLE17=I Can't Believe That Your In Love With Me
TTITLE18=Whn A Women Loves a Man
TTITLE19=I Can't Get Started
TTITLE20=More Than You Know
EXTD=YEAR: 2005
EXTT0=
EXTT1=
EXTT2=
EXTT3=
EXTT4=
EXTT5=
EXTT6=
EXTT7=
EXTT8=
EXTT9=
EXTT10=
EXTT11=
EXTT12=
EXTT13=
EXTT14=
EXTT15=
EXTT16=
EXTT17=
EXTT18=
EXTT19=
EXTT20=
PLAYORDER=
